<?xml version="1.0" encoding="utf-8"?>
<!-- Generator: Adobe Illustrator 19.2.1, SVG Export Plug-In . SVG Version: 6.00 Build 0)  -->
<svg version="1.1" id="Layer_1" xmlns="http://www.w3.org/2000/svg" xmlns:xlink="http://www.w3.org/1999/xlink" x="0px" y="0px"
	 viewBox="0 0 100 100" style="enable-background:new 0 0 100 100;" xml:space="preserve">
<g>
	<path d="M50,70.5c8.3,0,15-6.7,15-15v-24c0-8.3-6.7-15-15-15s-15,6.7-15,15v24C35,63.8,41.7,70.5,50,70.5z M50,64.5c-5,0-9-4-9-9
		v-3h18v3C59,60.5,55,64.5,50,64.5z M50,22.5c5,0,9,4,9,9V33h-9c-0.8,0-1.5,0.7-1.5,1.5S49.2,36,50,36h9v3h-9
		c-0.8,0-1.5,0.7-1.5,1.5S49.2,42,50,42h9v4.5H41v-15C41,26.5,45,22.5,50,22.5z"/>
	<path d="M77,55.5c0-1.7-1.3-3-3-3s-3,1.3-3,3c0,11.6-9.4,21-21,21s-21-9.4-21-21c0-1.7-1.3-3-3-3s-3,1.3-3,3
		c0,13.9,10.5,25.3,24,26.8v18.2c0,1.7,1.3,3,3,3s3-1.3,3-3V82.3C66.5,80.8,77,69.4,77,55.5z"/>
	<path d="M44.9,36c0.4,0,0.8-0.2,1.1-0.5c0.3-0.3,0.4-0.7,0.4-1c0-0.4-0.1-0.8-0.4-1.1c-0.5-0.6-1.6-0.6-2.1,0
		c-0.3,0.3-0.4,0.7-0.4,1.1c0,0.4,0.1,0.8,0.4,1C44.1,35.8,44.5,36,44.9,36z"/>
</g>
</svg>
